<?xml version="1.0" encoding="UTF-8"?><svg id="Layer_1" xmlns="http://www.w3.org/2000/svg" viewBox="0 0 144 144"><defs><style>.cls-1{fill:#0f206c;}.cls-2{opacity:.86;}</style></defs><g id="Shape_2" class="cls-2"><path class="cls-1" d="m72.09,138.64l-9.72-2.14-10.52-3.6-9.12-4.3-7.96-8.08-6.12-11.34-7.36-17.4-2.45-13.34.21-14.61,3.04-14.84,5.89-14.03,8.47-12.2,10.64-9.43,12.18-5.97,12.98-2,12.97,2.07,12.14,6.02,10.58,9.46,8.38,12.2,5.79,13.98,2.95,14.75.13,14.49-2.52,13.23-6.86,17.45-6.18,11.27-8.01,8.05-9.17,4.37-10.48,3.86-9.86,2.07Zm-29.17-10.36l9.07,4.28,10.49,3.58,9.62,2.12,9.76-2.05,10.44-3.84,9.13-4.35,7.92-7.98,6.12-11.19,6.84-17.4,2.5-13.16-.13-14.42-2.93-14.68-5.76-13.9-8.33-12.13-10.5-9.4-12.03-5.98-12.85-2.06-12.87,1.98-12.09,5.92-10.58,9.36-8.43,12.13-5.87,13.98-3.03,14.77-.21,14.54,2.44,13.28,7.34,17.33,6.07,11.26,7.86,8Z"/><path class="cls-1" d="m62.31,136.47l-8.79-6.07c-.08-.06-.11-.17-.05-.26.06-.09.18-.11.26-.05l8.69,6,11.32-6.64c.09-.05.2-.02.26.07.05.09.02.2-.07.26l-11.42,6.7c-.06.04-.14.03-.2,0Z"/><path class="cls-1" d="m53.63,130.44l-10.85-1.81c-.1-.02-.17-.11-.15-.22.02-.1.11-.17.22-.15l10.82,1.81c.1.02.17.11.15.22-.02.09-.09.16-.18.16Z"/><path class="cls-1" d="m71.92,138.54c-.05-.09,0-.2.08-.25l10.74-5.42c.09-.05.2,0,.25.08s0,.2-.08.25l-10.74,5.42c-.09.05-.2,0-.25-.08Z"/><path class="cls-1" d="m82.77,133.21l-9-3.41c-.1-.04-.15-.14-.11-.24.04-.1.14-.14.24-.11l9,3.41c.1.04.15.14.11.24-.04.09-.14.15-.24.11Z"/><path class="cls-1" d="m73.71,129.76l-7.85-6.75c-.08-.07-.09-.19-.02-.26.07-.08.19-.09.26-.02l7.65,6.58,5.35-14.05c.04-.1.14-.14.24-.11.1.04.15.15.11.24l-5.44,14.3c-.05.12-.2.16-.3.08Z"/><path class="cls-1" d="m53.48,130.36l-7.22-9.54c-.06-.08-.05-.2.04-.26.08-.06.2-.05.26.04l7.12,9.41,12.21-7.3c.09-.05.2-.02.26.06.05.09.02.2-.06.26l-12.35,7.39c-.08.05-.19.03-.25-.05Z"/><path class="cls-1" d="m79.16,115.46l-6.87-5.76c-.08-.07-.09-.18-.02-.26.07-.08.18-.09.26-.02l6.87,5.76c.08.07.09.18.02.26-.07.08-.18.09-.26.02Z"/><path class="cls-1" d="m65.83,122.97l-6.21-9.37c-.06-.09-.03-.2.05-.26.09-.06.2-.03.26.05l6.03,9.09,6.28-13.01c.04-.09.16-.13.25-.09.09.04.13.16.09.25l-6.42,13.31c-.06.13-.24.14-.32.02Z"/><path class="cls-1" d="m82.83,133.22c-.12,0-.22-.12-.18-.24l4.26-14.28c.03-.1.13-.15.23-.13.1.03.16.13.13.23l-4.19,14.03,9.11-.47,2.97-13.14c.02-.1.12-.17.22-.14.1.02.16.12.14.22l-3,13.28c-.02.08-.09.14-.17.15l-9.53.49Z"/><path class="cls-1" d="m87.02,118.92l-7.82-3.43c-.05-.02-.09-.07-.11-.13l-2.84-13.14c-.02-.1.04-.2.14-.22.1-.02.2.04.22.14l2.82,13.04,7.73,3.39c.09.04.14.15.1.25-.04.09-.15.14-.25.1Z"/><path class="cls-1" d="m95.35,119.45l-8.27-.51c-.08,0-.15-.06-.17-.14l-3.85-14.22c-.03-.1.03-.2.13-.23.1-.03.2.03.23.13l3.82,14.09,8.12.5c.1,0,.18.09.18.2,0,.1-.09.18-.19.18Z"/><path class="cls-1" d="m83.18,104.7l-6.8-2.35-6.36-3.86-5.44-4.93-3.2-4.04c-.06-.08-.05-.2.03-.26.08-.06.2-.05.26.03l3.18,4.02,5.39,4.88,6.28,3.81,6.79,2.34c.1.03.15.14.12.24-.03.1-.14.15-.24.12Z"/><path class="cls-1" d="m72.26,109.67l-5.5-7.38c-.06-.08-.04-.2.04-.26.08-.06.2-.04.26.04l5,6.71-2.12-10.4c-.02-.1.04-.2.15-.22.1-.02.2.04.22.15l2.29,11.22c.04.19-.21.31-.33.15Z"/><path class="cls-1" d="m90.1,105.18l-6.87-.47-10.97-5.28c-.09-.04-.13-.16-.09-.25.05-.09.16-.13.25-.09l10.86,5.25,6.82.47c.1,0,.18.1.17.2,0,.1-.09.17-.19.17Z"/><path class="cls-1" d="m72.35,99.45l-.88-.09c-.1-.01-.18-.1-.17-.2.01-.1.1-.18.21-.17l.84.09,6.2-.74c.1-.02.2.06.21.16.01.1-.06.2-.16.21l-6.25.74Z"/><path class="cls-1" d="m72.74,99.29c-.06-.09-.03-.2.06-.26l.92-.59,5.16-4.91,4.39-5.73c.06-.08.18-.1.26-.03.08.06.1.18.03.26l-4.41,5.75-5.21,4.95-.95.61c-.09.06-.2.03-.26-.06Z"/><path class="cls-1" d="m95.58,88.42l-12.17-.31c-.14,0-.23-.16-.16-.28l3.54-6.23c.05-.09.16-.12.25-.07.09.05.12.17.07.25l-3.39,5.96,11.85.3c.1,0,.18.09.18.19,0,.1-.09.18-.19.18Z"/><path class="cls-1" d="m83.79,85.45c-.08-.07-.09-.18-.02-.26l3.05-3.62c.07-.08.18-.09.26-.02.08.07.09.18.02.26l-3.05,3.62c-.07.08-.18.09-.26.02Z"/><path class="cls-1" d="m82.98,88.68c-.12,0-.21-.12-.18-.24l.93-3.19,1.27-8.69v-8.07s-.92-7.13-.92-7.13l-1.71-5.95-2.26-4.64-2.62-3.3-2.83-1.94-2.9-.61-2.88.69-2.24,1.62c-.08.06-.2.04-.26-.04-.06-.08-.04-.2.04-.26,2.46-1.77,2.28-1.66,2.34-1.67,3.2-.77,2.98-.72,3.04-.71,3.2.68,2.99.63,3.04.66,3.07,2.11,2.89,1.98,2.92,2.02l2.65,3.34,2.3,4.72,1.72,6.01.92,7.18v8.12s-1.27,8.75-1.27,8.75l-.94,3.21c-.02.08-.1.13-.18.13Z"/><path class="cls-1" d="m100.16,82.46l-13.2-.59c-.13,0-.21-.14-.16-.26l2.65-6.47c.04-.1.15-.14.24-.1.1.04.14.15.1.24l-2.54,6.23,12.93.57c.1,0,.18.09.18.2,0,.1-.09.18-.19.18Z"/><path class="cls-1" d="m85,76.64c-.03-.1.02-.2.12-.23l4.43-1.37c.1-.03.2.02.23.12.03.1-.02.2-.12.23l-4.43,1.37c-.1.03-.2-.02-.23-.12Z"/><path class="cls-1" d="m103.72,75.4h-14.12c-.12,0-.21-.12-.18-.23l1.74-6.55c.03-.1.13-.16.23-.13.1.03.16.13.13.23l-1.68,6.31h13.87c.1,0,.19.08.19.19s-.08.19-.19.19Z"/><path class="cls-1" d="m91.35,68.86l-6.17-.17c-.1,0-.18-.09-.18-.19,0-.1.09-.17.19-.18l6.16.17c.1,0,.18.09.18.19,0,.1-.09.18-.19.18Z"/><path class="cls-1" d="m91.35,68.86c-.11,0-.2-.1-.19-.21l.81-6.41c.01-.1.11-.18.21-.16.1.01.18.11.16.21l-.78,6.18,14.46-1.36c.1,0,.19.07.2.17,0,.1-.07.19-.17.2l-14.71,1.38Z"/><path class="cls-1" d="m92.16,62.45l-7.91-.92c-.1-.01-.18-.1-.16-.21.01-.1.1-.17.21-.16l7.89.92c.1.01.18.11.16.21-.01.1-.09.16-.19.16Z"/><path class="cls-1" d="m92.16,62.45c-.1,0-.18-.08-.19-.18l-.14-6.1c0-.1.08-.19.18-.19.14,0,.19.12.19.18l.13,5.87,14.5-3.41c.1-.03.2.04.22.14.02.1-.04.2-.14.22l-14.77,3.47Z"/><path class="cls-1" d="m92.02,56.34l-9.48-.8c-.1,0-.18-.1-.17-.2,0-.1.1-.18.2-.17l9.46.79c.1,0,.18.1.17.2,0,.1-.09.17-.19.17Z"/><path class="cls-1" d="m92.02,56.34c-.09,0-.17-.06-.18-.15l-1.11-5.58c-.02-.1.05-.2.15-.22.1-.02.2.05.22.15l1.07,5.35,13.84-5.91c.09-.04.2,0,.25.1.04.09,0,.2-.1.25l-14.12,6.01Z"/><path class="cls-1" d="m80.27,50.86c-.1,0-.19-.08-.19-.19,0-.1.08-.19.19-.19l10.63-.09c.1,0,.19.08.19.19,0,.1-.08.19-.19.19l-10.63.09Z"/><path class="cls-1" d="m90.73,50.65l-2.09-4.81c-.04-.09,0-.2.1-.25.1-.04.21,0,.25.1l2,4.6,12.4-8.54c.09-.06.2-.04.26.05.06.09.04.2-.05.26l-12.59,8.67c-.1.07-.23.03-.28-.08Z"/><path class="cls-1" d="m77.62,47.52c-.09,0-.17-.07-.18-.16-.01-.1.06-.2.16-.21l11.19-1.57c.1-.01.2.06.21.16s-.06.2-.16.21l-11.22,1.57Z"/><path class="cls-1" d="m88.67,45.88l-3.04-3.75c-.07-.08-.05-.2.03-.26.08-.07.2-.05.26.03l2.9,3.58,10.19-10.97c.07-.08.19-.08.26,0,.08.07.08.19,0,.26l-10.34,11.12c-.08.08-.21.08-.28,0Z"/><path class="cls-1" d="m74.74,45.54c-.08,0-.15-.05-.18-.13-.03-.1.03-.2.12-.23l11.03-3.34c.1-.03.2.03.23.12.03.1-.03.2-.12.23l-11.09,3.35Z"/><path class="cls-1" d="m85.67,42.18l-3.91-2.37c-.09-.05-.12-.17-.06-.26.05-.09.17-.12.26-.06l3.74,2.27,7.31-12.88c.05-.09.17-.12.25-.07.09.05.12.17.07.25l-7.4,13.05c-.05.09-.17.12-.26.07Z"/><path class="cls-1" d="m71.6,44.81c-.05-.09,0-.2.08-.25l10.1-5.08c.09-.05.2,0,.25.08.05.09,0,.2-.08.25l-10.1,5.08c-.09.05-.2.01-.25-.08Z"/><path class="cls-1" d="m81.86,39.83l-4.63-.68c-.1-.01-.17-.11-.16-.21.02-.1.11-.17.21-.16l4.44.66,3.9-13.99c.03-.1.13-.16.23-.13.1.03.16.13.13.23l-3.95,14.15c-.02.08-.1.14-.18.14Z"/><path class="cls-1" d="m68.66,45.55c-.06-.08-.05-.2.03-.26l8.45-6.47c.08-.06.2-.05.26.04.06.08.05.2-.03.26l-8.45,6.47c-.08.06-.2.05-.26-.04Z"/><path class="cls-1" d="m72.19,40.45c-.08,0-.16-.06-.18-.14-.03-.1.03-.2.13-.23l4.93-1.27.21-14.13c0-.1.08-.2.19-.18.1,0,.19.09.18.19l-.21,14.27c0,.08-.06.16-.14.18l-5.12,1.31Z"/><path class="cls-1" d="m66.84,43.84c-.06-.09-.03-.2.05-.26l5.2-3.47c.09-.06.2-.03.26.05s.03.2-.05.26l-5.2,3.47c-.09.06-.2.03-.26-.05Z"/><path class="cls-1" d="m61.92,49.61c-.08-.07-.09-.19-.02-.26l4.95-5.73c.07-.08.19-.09.26-.02.08.07.09.19.02.26l-4.95,5.73c-.07.08-.19.09-.26.02Z"/><path class="cls-1" d="m61.23,55.72c-.11,0-.2-.1-.19-.21l.82-6.07c.01-.1.11-.18.21-.16.1.01.17.11.16.21l-.82,6.07c-.01.09-.09.16-.19.16Z"/><path class="cls-1" d="m62.85,94c-.08,0-.15-.05-.18-.13l-2.63-8.73-1.31-8.6-.14-8,.84-7.09,1.61-5.96,5.78-11.83c.05-.09.16-.13.25-.09.09.05.13.16.09.25l-5.77,11.8-1.59,5.9-.83,7.04.14,7.95,1.31,8.55,2.62,8.7c.04.12-.05.24-.18.24Z"/><path class="cls-1" d="m57.69,57.52c-.09-.05-.12-.16-.08-.25l4.19-7.75-9.92-8.58c-.08-.07-.09-.19-.02-.26.07-.08.19-.09.26-.02l10.03,8.68c.07.06.08.15.04.23l-4.26,7.89c-.05.09-.16.13-.25.08Z"/><path class="cls-1" d="m59.45,61.54l-1.84-4.11c-.04-.09,0-.2.09-.25.09-.04.21,0,.25.09l1.84,4.11c.04.09,0,.2-.09.25-.09.04-.2,0-.25-.09Z"/><path class="cls-1" d="m54.65,67.34c-.13,0-.22-.12-.18-.25l3.08-9.64-12.21-5.36c-.09-.04-.14-.15-.1-.25.04-.09.15-.14.25-.1l12.36,5.43c.09.04.13.14.1.23l-3.14,9.8c-.03.08-.1.13-.18.13Z"/><path class="cls-1" d="m58.72,68.71l-4.13-1.38c-.1-.03-.15-.14-.12-.24.03-.1.14-.15.24-.12l4.13,1.38c.1.03.15.14.12.24-.03.1-.14.15-.24.12Z"/><path class="cls-1" d="m53.02,78.55c-.12,0-.2-.1-.19-.21l1.6-11.03-13.72-1.96c-.1-.01-.17-.11-.16-.21.01-.1.11-.17.21-.16l13.91,1.99c.1.01.17.11.16.21l-1.62,11.21c-.01.09-.09.16-.18.16Z"/><path class="cls-1" d="m52.85,78.42c-.03-.1.02-.2.12-.23l5.89-1.86c.1-.03.2.02.23.12.03.1-.02.2-.12.23l-5.89,1.86c-.1.03-.2-.03-.23-.12Z"/><path class="cls-1" d="m53.25,90.56c-.1,0-.19-.08-.19-.18l-.22-11.81-14.48,1.32c-.1.01-.19-.07-.2-.17,0-.1.07-.19.17-.2l14.68-1.34c.12,0,.2.08.2.18l.22,12.01c0,.1-.08.19-.19.19Z"/><path class="cls-1" d="m53.1,90.49c-.06-.08-.05-.2.04-.26l6.98-5.29c.08-.06.2-.05.26.04.06.08.05.2-.04.26l-6.98,5.29c-.09.06-.2.04-.26-.04Z"/><path class="cls-1" d="m55.47,102.56c-.09,0-.17-.06-.18-.15l-2.19-11.8-14.53,4.01c-.1.03-.2-.03-.23-.13-.03-.1.03-.2.13-.23l14.73-4.07c.11-.03.21.04.23.15l2.23,12c.02.11-.07.22-.18.22Z"/><path class="cls-1" d="m55.35,102.52c-.08-.07-.09-.19-.02-.26l7.37-8.56c.09-.1.25-.08.31.04l4.05,8.36c.05.09,0,.2-.09.25-.09.05-.2,0-.25-.09l-3.93-8.11-7.19,8.35c-.07.08-.19.09-.26.02Z"/><path class="cls-1" d="m59.77,113.69c-.08,0-.15-.05-.17-.12l-4.23-10.94-14.05,6.02c-.1.04-.21,0-.25-.1-.04-.09,0-.2.1-.25l14.22-6.1c.1-.04.21,0,.25.1l4.3,11.12c.05.12-.04.25-.17.25Z"/><path class="cls-1" d="m46.25,120.8c-.05-.09-.02-.2.08-.25l13.32-7.19,7.06-11.22-2.18-8.66c-.03-.1.04-.2.14-.23.1-.02.2.04.23.14l2.2,8.74s0,.1-.02.15l-7.13,11.33c-.04.07,0,.03-13.43,7.28-.09.05-.2.01-.25-.08Z"/><path class="cls-1" d="m90.01,105.16l-11.53-6.48c-.14-.08-.12-.29.03-.34l5.94-2.12c.1-.04.2.02.24.11.03.1-.02.2-.11.24l-5.55,1.98,11.17,6.28c.09.05.12.16.07.25-.05.09-.17.12-.25.07Z"/><path class="cls-1" d="m95.35,119.45c-.08,0-.15-.05-.18-.12l-5.25-14.27c-.04-.11.02-.22.13-.25l6.84-1.54c.1-.02.2.04.22.14.02.1-.04.2-.14.22l-6.63,1.49,5.12,13.9,8.04-2.48c.1-.03.2.02.23.12.03.1-.02.2-.12.23l-8.26,2.54Z"/><path class="cls-1" d="m96.85,103.62l-12.43-7.06c-.09-.05-.12-.17-.07-.25.05-.09.16-.12.25-.07l12.43,7.06c.09.05.12.17.07.25-.05.09-.17.12-.25.07Z"/><path class="cls-1" d="m73.82,98.79c-.09,0-.16-.06-.18-.15-.02-.1.04-.2.15-.22l10.66-2.2,5.72-3.43c.09-.05.2-.02.26.06.05.09.02.2-.06.26l-5.75,3.44-10.79,2.23Z"/><path class="cls-1" d="m103.39,116.81l-6.62-13.27c-.05-.09-.01-.2.08-.25l6.75-3.61c.09-.05.2-.01.25.08.05.09.01.2-.08.25l-6.59,3.52,6.54,13.11c.05.09,0,.2-.08.25-.09.05-.2,0-.25-.08Z"/><path class="cls-1" d="m103.61,100.02l-13.43-6.9c-.09-.05-.13-.16-.08-.25.05-.09.16-.13.25-.08l13.43,6.9c.09.05.13.16.08.25-.05.09-.16.13-.25.08Z"/><path class="cls-1" d="m111.06,111.27l-7.52-11.31c-.05-.08-.04-.18.03-.24l6.2-5.75c.08-.07.19-.07.26,0,.07.08.07.19-.01.26l-6.08,5.64,7.44,11.18c.06.09.03.2-.05.26-.09.06-.2.03-.26-.05Z"/><path class="cls-1" d="m109.89,94.29l-14.38-5.89c-.1-.04-.14-.15-.1-.24.04-.1.15-.14.24-.1l14.31,5.87c.1.04.14.15.1.24-.03.07-.1.12-.17.12Z"/><path class="cls-1" d="m79.01,93.86c-.1,0-.18-.08-.19-.17,0-.1.07-.19.17-.2l11.19-.71,5.27-4.68,4.55-5.93c.06-.08.18-.1.26-.03.08.06.1.18.03.26l-4.57,5.96-5.34,4.75s-.07.04-.11.05c0,0-11.26.72-11.27.72Z"/><path class="cls-1" d="m117.58,102.81l-7.83-8.58c-.06-.06-.07-.16-.02-.23l5.11-7.89c.06-.09.17-.11.26-.06.09.06.11.17.06.26l-5.03,7.77,7.73,8.47c.07.08.06.19-.01.26-.08.07-.19.06-.26-.01Z"/><path class="cls-1" d="m115.01,86.4l-14.9-3.94c-.12-.03-.17-.16-.12-.27l3.57-7.06c.05-.09.16-.13.25-.08.09.05.13.16.08.25l-3.46,6.85,14.63,3.88c.1.03.16.13.13.23-.02.08-.1.14-.18.14Z"/><path class="cls-1" d="m117.72,102.87c-.13,0-.22-.14-.17-.26l4.69-11.02-7.34-5.23c-.07-.05-.1-.14-.07-.22l3.57-9.74c.04-.1.14-.15.24-.11.1.04.15.14.11.24l-3.52,9.61,7.35,5.23c.07.05.1.14.06.23l-4.75,11.16c-.03.07-.1.11-.17.11Z"/><path class="cls-1" d="m118.58,76.66l-14.87-1.26c-.12-.01-.2-.13-.16-.24l2.32-7.93c.03-.1.13-.16.23-.13.1.03.16.13.13.23l-2.25,7.71,14.62,1.24c.1,0,.18.1.17.2,0,.1-.09.17-.19.17Z"/><path class="cls-1" d="m124.99,78.52l-6.46-1.87c-.09-.03-.15-.11-.13-.21l1.61-11.16c.01-.1.11-.17.21-.16.1.01.17.11.16.21l-1.59,11,6.26,1.82c.1.03.16.13.13.23-.02.08-.1.13-.18.13Z"/><path class="cls-1" d="m106.04,67.48c-.11,0-.2-.09-.19-.21l.84-8.49c.01-.1.1-.18.2-.17.1,0,.18.1.17.2l-.82,8.26,13.91-1.95c.1-.01.2.06.21.16.01.1-.06.2-.16.21l-14.17,1.98Z"/><path class="cls-1" d="m120,65.32l-.64-11.91c0-.1.07-.19.18-.2.1-.01.19.07.2.18l.63,11.67,4.45-1.36c.1-.03.2.03.23.12.03.1-.03.2-.12.23l-4.68,1.43c-.12.04-.24-.05-.24-.17Z"/><path class="cls-1" d="m106.88,58.98c-.1,0-.18-.08-.19-.17l-.82-8.64c0-.1.07-.19.17-.2.11,0,.19.07.2.17l.79,8.39,12.42-5.3c.09-.04.2,0,.25.1.04.09,0,.2-.1.25l-12.73,5.41Z"/><path class="cls-1" d="m119.36,53.45l-3.09-11.9c-.03-.1.03-.2.13-.23.1-.03.2.03.23.13l2.98,11.45,2.15-3.84c.05-.09.16-.12.25-.07.09.05.12.16.07.25l-2.38,4.24c-.08.15-.3.12-.34-.04Z"/><path class="cls-1" d="m105.89,50.21l-2.57-8.25c-.03-.1.02-.2.12-.23.1-.03.2.02.23.12l2.49,7.98,10.17-8.48c.08-.07.2-.06.26.02.07.08.06.2-.02.26l-10.39,8.66c-.1.09-.26.04-.3-.09Z"/><path class="cls-1" d="m116.28,41.58l-5.53-11.01c-.05-.09,0-.2.08-.25.09-.05.2,0,.25.08l5.13,10.22-.26-5.41c0-.1.07-.19.18-.2.1-.02.19.07.2.18l.3,6.29c0,.2-.26.27-.35.09Z"/><path class="cls-1" d="m103.33,42.01l-4.35-7.27c-.05-.09-.02-.2.06-.26.09-.05.2-.02.26.06l4.19,7.01,7.27-11.17c.06-.09.17-.11.26-.05.09.06.11.17.05.26l-7.43,11.42c-.07.12-.25.11-.32,0Z"/><path class="cls-1" d="m110.78,30.61l-7.82-9.24c-.07-.08-.06-.2.02-.26.08-.07.2-.06.26.02l7.04,8.31-2.65-6.32c-.04-.09,0-.2.1-.24.1-.04.2,0,.24.1l3.12,7.44c.04.09,0,.18-.07.23-.08.05-.18.03-.24-.04Z"/><path class="cls-1" d="m99.02,34.78l-5.97-5.67c-.07-.07-.08-.19,0-.26.07-.07.19-.08.26,0l5.75,5.46,3.87-13.1c.03-.1.13-.15.23-.13.1.03.16.13.13.23l-3.95,13.4c-.04.13-.21.18-.31.08Z"/><path class="cls-1" d="m102.99,21.4l-9.73-6.68c-.09-.06-.11-.17-.05-.26.06-.08.18-.11.26-.05l8.76,6.01-5.12-6.69c-.06-.08-.05-.2.03-.26.08-.06.2-.05.26.04l5.83,7.63c.06.07.05.18-.01.24-.06.07-.17.08-.24.03Z"/><path class="cls-1" d="m93.09,29.14l-7.36-3.47c-.09-.04-.13-.16-.09-.25.04-.09.16-.13.25-.09l7.1,3.35.19-14.11c0-.1.07-.2.19-.18.1,0,.19.09.18.19l-.19,14.4c0,.14-.15.22-.27.17Z"/><path class="cls-1" d="m93.37,14.75l-11.19-3.42c-.1-.03-.15-.13-.12-.23.03-.1.14-.16.23-.12l10.27,3.15-7.49-6.37c-.08-.07-.09-.18-.02-.26.07-.08.18-.09.26-.02l8.18,6.95c.13.11.05.33-.12.33Z"/><path class="cls-1" d="m85.81,25.68l-8.36-.8c-.1,0-.18-.1-.17-.2,0-.1.1-.18.2-.17l8.07.78-3.51-14.09c-.02-.1.04-.2.14-.23.1-.02.2.04.23.14l3.58,14.34c.03.12-.06.23-.18.23Z"/><path class="cls-1" d="m70.37,11.59c-.1,0-.18-.08-.19-.18,0-.1.08-.19.18-.19l11.17-.23-9.36-5.27c-.09-.05-.12-.16-.07-.25.05-.09.16-.12.25-.07l9.96,5.6c.17.09.1.35-.09.35l-11.86.25Z"/><path class="cls-1" d="m68.65,27.12c-.08,0-.16-.06-.18-.14-.03-.1.03-.2.14-.23l8.59-2.18-6.98-13.08c-.05-.09-.01-.2.08-.25.09-.05.2-.01.25.08l7.1,13.29c.06.11,0,.24-.12.27l-8.86,2.25Z"/><path class="cls-1" d="m58.54,15.73c-.08,0-.15-.05-.18-.13-.03-.1.02-.2.11-.24l11.33-3.96-10.53-3.69c-.1-.03-.15-.14-.11-.24.03-.1.14-.15.24-.11l11.03,3.87c.17.06.17.29,0,.35l-11.9,4.15Z"/><path class="cls-1" d="m68.51,27.06l-10.12-11.4c-.07-.08-.06-.2.02-.26.08-.07.2-.06.26.02l10.12,11.4c.07.08.06.2-.02.26-.08.07-.2.06-.26-.02Z"/><path class="cls-1" d="m47.34,23.49c-.06-.08-.04-.2.04-.26l10.68-7.59-10.89-1.98c-.1-.02-.17-.12-.15-.22.02-.1.12-.17.22-.15l11.33,2.06c.16.03.21.24.07.34l-11.05,7.85c-.08.06-.2.04-.26-.04Z"/><path class="cls-1" d="m59.85,32.47l-12.47-8.94c-.08-.06-.1-.18-.04-.26.06-.08.18-.1.26-.04l12.47,8.94c.08.06.1.18.04.26-.06.08-.18.1-.26.04Z"/><path class="cls-1" d="m63.55,50.68c-.08-.07-.09-.18-.02-.26l8.46-10.19-3.45-12.99-8.48,5.25c-.09.05-.2.03-.26-.06-.05-.09-.03-.2.06-.26l8.7-5.39c.1-.07.25-.01.28.11l3.54,13.33c.02.06,0,.12-.04.17l-8.52,10.27c-.07.08-.18.09-.26.02Z"/><path class="cls-1" d="m66.83,43.83l-6.91-11.2-7.78,8.29c-.07.08-.19.08-.26,0-.08-.07-.08-.19,0-.26l7.95-8.47c.09-.1.23-.07.3.03l7.03,11.41c.05.09.03.2-.06.26-.09.05-.2.03-.26-.06Z"/><path class="cls-1" d="m37.86,34.7c-.08-.07-.09-.18-.02-.26l9.26-10.89-10.52-.5c-.1,0-.18-.09-.18-.2s.09-.19.2-.18l10.9.51c.16,0,.23.19.13.31l-9.51,11.18c-.07.08-.19.09-.26.02Z"/><path class="cls-1" d="m45.32,52.09c-.09-.05-.12-.17-.07-.26l6.48-10.96-13.84-6.14c-.09-.04-.14-.15-.1-.25.04-.09.15-.14.25-.09l14.03,6.23c.1.04.14.17.09.27l-6.59,11.14c-.05.09-.17.12-.26.07Z"/><path class="cls-1" d="m30.53,48.48c-.09-.05-.13-.16-.08-.25l7.21-13.46-9.51.46c-.1.01-.19-.07-.2-.18,0-.1.07-.19.18-.2l9.84-.48c.13-.02.25.14.17.28l-7.37,13.75c-.05.09-.16.12-.25.08Z"/><path class="cls-1" d="m40.74,65.36c-.13,0-.22-.13-.18-.25l4.61-13.05-14.6-3.57c-.1-.02-.16-.13-.14-.23.02-.1.13-.16.23-.14l14.8,3.62c.11.03.17.14.13.24l-4.68,13.24c-.03.08-.1.12-.18.12Z"/><path class="cls-1" d="m25.88,63.93c-.13,0-.22-.12-.18-.24l4.65-15.16-8.07.7c-.11,0-.19-.07-.2-.17,0-.1.07-.19.17-.2l8.35-.72c.14,0,.23.12.19.24l-4.73,15.43c-.02.08-.1.13-.18.13Z"/><path class="cls-1" d="m38.35,79.89c-.12,0-.2-.1-.18-.22l2.36-14.34-14.66-1.41c-.1,0-.18-.1-.17-.2,0-.1.1-.18.2-.17l14.85,1.43c.11.01.18.11.17.22l-2.39,14.54c-.01.09-.09.16-.18.16Z"/><path class="cls-1" d="m24,79.89c-.11,0-.2-.1-.19-.21l1.85-15.75-6.44.1c-.1.01-.19-.08-.19-.18,0-.1.08-.19.18-.19l6.65-.1c.05.01.11.02.14.06.04.04.05.09.05.15l-1.88,15.97c-.01.09-.09.17-.19.17Z"/><path class="cls-1" d="m38.52,94.63c-.1,0-.19-.08-.19-.18l-.17-14.55h-14.16c-.1,0-.19-.08-.19-.19s.08-.19.19-.19h14.34c.1,0,.19.08.19.18l.17,14.74c0,.1-.08.19-.19.19Z"/><path class="cls-1" d="m25.06,95.41c-.1,0-.18-.08-.19-.18l-1.04-15.39-4.86-1.26c-.1-.03-.16-.13-.13-.23.03-.1.13-.16.23-.13l4.99,1.29c.08.02.13.09.14.17l1.05,15.52c0,.11-.08.2-.19.2Z"/><path class="cls-1" d="m41.25,108.66c-.09,0-.17-.06-.18-.15l-2.7-13.87-13.3.77c-.1.01-.19-.07-.2-.17,0-.1.07-.19.18-.2l13.46-.78c.09,0,.18.06.19.15l2.73,14.03c.02.11-.06.22-.18.22Z"/><path class="cls-1" d="m46.41,120.9l-11.52-.31c-.1,0-.18-.09-.18-.19,0-.1.09-.18.19-.18l11.22.31-5-11.85-12.31.62c-.09,0-.17-.05-.19-.14l-3.74-13.82-3.56-3.44c-.07-.07-.08-.19,0-.26.07-.07.19-.08.26,0l3.59,3.47s.04.05.05.09l3.71,13.73,12.29-.62c.08-.01.15.04.18.11l5.16,12.23c.05.12-.04.26-.17.26Z"/><path class="cls-1" d="m101.53,128.36c-.12,0-.2-.11-.18-.22l2.03-11.45s.04-.09.07-.12l7.66-5.56c.08-.06.2-.04.26.04.06.08.04.2-.04.26l-7.6,5.52-2.02,11.37c-.02.09-.09.15-.18.15Z"/><path class="cls-1" d="m109.49,120.34c-.12,0-.21-.11-.18-.22l1.73-8.99c.01-.07-.01-.02,6.54-8.56.06-.07.16-.09.24-.05.08.04.12.14.09.22l-2.1,6.26c-.03.1-.14.15-.24.12-.1-.03-.15-.14-.12-.24l1.74-5.2-5.79,7.55-1.72,8.95c-.02.09-.1.15-.18.15Z"/></g></svg>