<?xml version="1.0" encoding="UTF-8"?><svg id="Layer_1" xmlns="http://www.w3.org/2000/svg" viewBox="0 0 144 144"><defs><style>.cls-1{fill:none;stroke:#0f206c;stroke-miterlimit:10;stroke-width:.2px;}</style></defs><path class="cls-1" d="m73.19,69.15c1.17-25.54,20.42-50.66,46.48-54.35,1.98,1.04,3.79,2.36,5.15,4.14l.69,1.45.16,1.46-.38,1.46c-4.08,7.62-17.59,9.47-25.19,10.76-9.26,1.56-18.7,2.15-28.09,2.15s-18.82-.59-28.09-2.16c-7.61-1.29-21.12-3.15-25.2-10.76l-.38-1.46.16-1.46.69-1.45c4.84-6.35,15.32-8.17,22.69-9.55,8.63-1.61,17.43-2.28,26.19-2.48,16.66-.37,36.46.14,51.62,7.89-26.51,3.75-45.91,29.61-46.52,55.6-.8-.3-1.68-.26-2.42.1l-.02.04v.04s0,.04,0,.04c.8.42,1.76.42,2.56,0v-.04s0-.04,0-.04l-.02-.04s-.07-.08-.12-.1l.04-1.26h0Z"/><path class="cls-1" d="m118.39,115.33c-26.6,3.12-45.8-19.51-45.24-44.92.05.02.09.06.12.1l.02.04v.04s0,.04,0,.04c-.8.42-1.76.42-2.56,0v-.04s0-.04,0-.04l.02-.04c.74-.37,1.63-.4,2.42-.1-.41,19.49,10.51,38.91,30.23,43.98,5.27,1.36,10.79,1.56,16.18.79-15.33-8.07-35.56-8.52-52.48-8.09-8.92.23-17.89,1.03-26.64,2.85-6.67,1.38-19.11,3.57-21.82,10.97l-.15,1.5.38,1.5c4.01,7.74,17.49,9.71,25.14,11.04,9.24,1.61,18.66,2.21,28.02,2.21,9.37,0,18.78-.6,28.02-2.21,7.65-1.33,21.13-3.31,25.13-11.04l.38-1.5-.16-1.5c-1-2.66-3.41-4.42-5.82-5.74l-1.16.15h0Z"/><path class="cls-1" d="m119.55,115.18c2.42,1.31,4.83,3.09,5.82,5.74l.16,1.5-.38,1.5c-4.01,7.74-17.48,9.71-25.13,11.04-9.24,1.6-18.66,2.21-28.02,2.21-9.37,0-18.79-.61-28.02-2.21-7.65-1.33-21.13-3.31-25.14-11.04l-.38-1.5.15-1.5c2.71-7.4,15.15-9.6,21.82-10.97,8.75-1.81,17.71-2.61,26.64-2.85,16.91-.45,37.16.02,52.48,8.09v.14c-15.33-8.07-35.56-8.52-52.48-8.09-8.92.23-17.89,1.03-26.64,2.85-6.67,1.38-19.11,3.57-21.82,10.97l-.15,1.5.38,1.5c4.01,7.74,17.49,9.71,25.14,11.04,9.24,1.61,18.66,2.21,28.02,2.21,9.37,0,18.78-.6,28.02-2.21,7.65-1.33,21.13-3.31,25.13-11.04l.38-1.5-.16-1.5c-1-2.66-3.41-4.42-5.82-5.74v-.14h0Z"/><path class="cls-1" d="m73.02,72.94c.58,25.13,20.57,46.11,46.53,42.37,2.42,1.31,4.83,3.09,5.82,5.74l.16,1.5-.38,1.5c-4.01,7.74-17.48,9.71-25.13,11.04-9.24,1.61-18.66,2.21-28.02,2.21-9.37,0-18.79-.61-28.02-2.21-7.65-1.33-21.13-3.31-25.14-11.04l-.38-1.5.15-1.5c2.71-7.4,15.15-9.6,21.82-10.97,8.75-1.81,17.71-2.61,26.64-2.85,16.91-.45,37.16.02,52.48,8.09-26.52,3.81-46.53-18.06-46.54-43.63-.7-.26-1.47-.23-2.13.09v.03s-.02.03-.02.03v.03c.71.37,1.56.37,2.26,0v-.03s0-.03,0-.03v-.03s-.08-.07-.12-.09v1.26h.01Z"/><path class="cls-1" d="m118.5,14.85c-26.46,4.44-45.47,30.72-45.5,56.84.04.02.08.05.11.09v.03s.02.03.02.03v.03c-.71.37-1.56.37-2.26,0v-.03s0-.03,0-.03v-.03c.67-.32,1.44-.35,2.14-.09.03-26.5,19.64-53.19,46.67-57.02-15.16-7.76-34.96-8.26-51.62-7.89-8.76.19-17.56.87-26.19,2.48-7.36,1.37-17.84,3.2-22.69,9.55l-.69,1.45-.16,1.46.38,1.46c4.08,7.62,17.59,9.47,25.2,10.76,9.26,1.57,18.7,2.16,28.09,2.16,9.39,0,18.82-.59,28.09-2.15,7.6-1.28,21.12-3.14,25.19-10.75l.38-1.46-.16-1.46-.69-1.45c-1.36-1.78-3.17-3.1-5.15-4.14l-1.16.18h0Z"/><path class="cls-1" d="m119.67,14.81v-.14c1.98,1.04,3.79,2.36,5.15,4.14l.69,1.45.16,1.46-.38,1.46c-4.08,7.62-17.59,9.47-25.19,10.75-9.26,1.56-18.7,2.15-28.09,2.15-9.39,0-18.82-.59-28.09-2.16-7.61-1.29-21.12-3.15-25.2-10.76l-.38-1.46.16-1.46.69-1.45c4.84-6.35,15.32-8.17,22.69-9.55,8.63-1.61,17.43-2.28,26.19-2.48,16.66-.37,36.46.14,51.62,7.89v.14c-15.16-7.76-34.96-8.26-51.62-7.89-8.76.19-17.56.87-26.19,2.48-7.36,1.37-17.84,3.2-22.69,9.55l-.69,1.45-.16,1.46.38,1.46c4.08,7.62,17.59,9.47,25.2,10.76,9.26,1.57,18.7,2.16,28.09,2.16,9.39,0,18.82-.59,28.09-2.15,7.6-1.28,21.12-3.14,25.19-10.76l.38-1.46-.16-1.46-.69-1.45c-1.36-1.78-3.17-3.1-5.15-4.14h0Z"/><path class="cls-1" d="m119.67,14.81h0l2.22,1.33h0l1.72,1.39h0l1.21,1.43h0l.69,1.45h0l.16,1.46h0l-.38,1.46h0l-.91,1.44h0l-1.43,1.41h0l-1.94,1.37h0l-2.43,1.31h0l-2.89,1.24h0l-3.33,1.15h0l-3.74,1.05h0l-4.1.95h0l-4.43.83h0l-4.71.71h0c-1.65.19-3.3.38-4.95.57h0l-5.13.43h0l-5.27.29h0c-1.78.05-3.56.1-5.35.15h0c-1.79,0-3.58,0-5.37,0h0c-1.78-.05-3.56-.1-5.35-.15h0c-1.76-.1-3.51-.2-5.27-.29h0c-1.71-.15-3.42-.29-5.13-.44h0c-1.65-.19-3.3-.38-4.95-.57h0c-1.57-.24-3.14-.47-4.71-.71h0l-4.43-.83h0l-4.1-.95h0l-3.74-1.06h0l-3.33-1.15h0l-2.89-1.24h0l-2.43-1.31h0l-1.94-1.37h0l-1.43-1.41h0l-.91-1.45h0l-.38-1.46h0l.16-1.46h0l.69-1.45h0l1.21-1.43h0l1.72-1.39h0l2.22-1.33h0l2.69-1.26h0l3.13-1.18h0l3.54-1.09h0l3.92-.99h0l4.26-.88h0c1.52-.25,3.04-.51,4.56-.76h0l4.81-.63h0l5.01-.5h0l5.17-.36h0l5.27-.22h0c1.77-.02,3.55-.05,5.32-.07h0l5.32.07h0l5.27.22h0c1.72.12,3.44.24,5.17.36h0l5.01.5h0l4.81.63h0c1.52.25,3.04.51,4.56.76h0c1.42.29,2.84.59,4.26.88h0l3.92.99h0l3.54,1.09h0l3.13,1.18h0l2.69,1.26h0Z"/><path class="cls-1" d="m89.72,30.84c.74.38,1.39.9,1.9,1.55.08.18.17.36.25.54.02.18.04.36.05.55-.05.18-.1.36-.15.54-5.1,7.52-34.45,7.51-39.55,0-.05-.18-.1-.36-.15-.54.02-.18.03-.36.05-.55.08-.18.17-.36.25-.54,6.76-7.83,29.13-5.6,37.34-1.54h0Z"/><path class="cls-1" d="m73.8,62.99c.08.04.14.09.19.16,0,.02.02.04.03.06v.06s0,.04,0,.06c-1.27.66-2.77.66-4.03,0l-.02-.06s0-.04,0-.06c0-.02.02-.04.03-.06,1.18-.58,2.55-.62,3.81-.16h0Z"/><path class="cls-1" d="m79.45,96.09c.31.16.58.39.8.66.03.08.07.15.1.23,0,.08.01.16.02.23-.02.08-.04.16-.06.23-3.09,3.22-13.54,3.18-16.65,0-.02-.08-.04-.16-.06-.23l.02-.23c.03-.08.07-.15.1-.23,3.52-3.13,11.72-2.5,15.72-.66h0Z"/><path class="cls-1" d="m103.95,114.54c1.67.84,3.2,2.09,3.9,3.86.03.34.07.67.1,1.01-.09.34-.17.67-.26,1.01-4.14,7.46-19.45,8.04-26.71,8.57-11,.81-22.65.48-33.36-2.36-3.9-1.03-9.21-2.41-11.33-6.21-.09-.34-.17-.67-.26-1.01.03-.34.07-.67.1-1.01,3.53-8.94,24.02-8.99,31.61-9.26,11.7-.4,25.6-.13,36.21,5.41h0Z"/><path class="cls-1" d="m103.46,114.56c1.64.85,3.12,2.07,3.83,3.8.03.33.07.66.1.99-.08.33-.17.66-.25.99-4.01,7.04-17.97,7.72-24.91,8.31-11.16.96-22.97.68-33.87-2.12-3.94-1.01-9.35-2.39-11.52-6.2-.08-.33-.17-.66-.25-.99.03-.33.06-.66.1-.99,2.77-6.64,15.61-7.7,21.58-8.41,10.53-1.26,21.47-1.13,31.93.66,4.56.78,9.13,1.86,13.27,3.97h0Z"/><path class="cls-1" d="m79.15,95.84c.3.15.56.37.77.64.03.07.07.15.1.22,0,.07.01.15.02.22l-.06.22c-3.05,3.03-12.93,3.09-15.96,0-.02-.07-.04-.15-.06-.22,0-.07.01-.15.02-.22.03-.07.07-.15.1-.22,3.38-3,11.23-2.4,15.08-.63h0Z"/><path class="cls-1" d="m73.73,62.66c.07.04.14.09.19.15l.02.05v.05s0,.04,0,.05c-1.22.63-2.65.63-3.87,0,0-.02,0-.04-.01-.05v-.05s.02-.04.03-.05c1.12-.55,2.46-.6,3.66-.15h0Z"/><path class="cls-1" d="m89.8,30.57c.74.38,1.39.9,1.91,1.55.08.18.17.36.25.54.02.18.04.37.05.55-.05.18-.1.36-.15.55-5.19,7.51-34.55,7.5-39.74,0-.05-.18-.1-.36-.15-.55.02-.18.04-.37.05-.55.08-.18.17-.36.25-.54,6.77-7.8,29.29-5.63,37.51-1.55h0Z"/><path class="cls-1" d="m98.81,8.74s0,.07,0,.1c-15.13,7.28-21.63,28.51-24.43,43.73-2.94,15.99-3.98,37.71,6.38,51.41,4.42,5.85,11.12,8.44,17.97,5.08,0,.05,0,.09,0,.14-16.61,8.12-24.13-15.16-25.58-27.14-2.07-17.14.78-35.44,7.71-51.22,3.74-8.51,9.22-17.93,17.94-22.13v.04h0Z"/><path class="cls-1" d="m69.58,6.76c1.82,13.24,1.82,26.82,2.1,40.17.31,14.4.41,28.82.07,43.22-.14,6.05.1,12.52-1.19,18.46v.02c-.01.05-.03.1-.05.15h0c-.01.06-.03.1-.05.14h0s-.03.08-.05.11h0s-.03.06-.05.08h0s-.03.03-.03.03h-.03v.02h-.03s-.03.01-.03.01h0s-.03,0-.03,0l-.03-.02h0s-.03-.02-.03-.02l-.03-.03h0s-.04-.05-.06-.08h0s-.04-.07-.06-.11h0c-.02-.05-.04-.1-.06-.14h0c-.02-.07-.04-.12-.06-.17v-.02c-.02-.06-.04-.12-.06-.19v-.02c-.11-.43-.2-.87-.26-1.31.05.49.13.97.26,1.45v.02c.02.06.04.13.06.19v.02c.02.05.04.11.06.16h0c.02.06.03.1.06.15h0s.03.08.06.11h0s.03.06.06.08h0s.03.04.03.04l.03.02h0s.03.02.03.02h.03s0,0,0,0h.03s.03-.01.03-.01h0s.03-.02.03-.02l.03-.03h0s.04-.05.05-.07h0s.04-.07.05-.11h0c.02-.05.04-.09.05-.14h0c.02-.06.04-.12.05-.17v-.02c2.68-12.33,1.4-26.23,1.39-38.79-.02-13.7-.25-27.4-.8-41.09-.3-7.35-.45-14.84-1.57-22.12h0Z"/><path class="cls-1" d="m41.09,9.41s0,.09,0,.14c15.85,6.16,24.16,25.94,27.74,41.22,3.78,16.15,4.63,37.12-5.38,51.38-5.22,7.44-13.55,11.12-22.3,7.63,0,.05,0,.09,0,.14,17.42,6.95,27.09-12.55,29.31-26.6,2.96-18.76-1.06-39.58-10.7-55.93-4.37-7.41-10.43-14.78-18.67-17.98h0Z"/><path class="cls-1" d="m22.31,15.88s0,.08,0,.12c21.15,2.35,39.07,18.47,45.68,38.4,6.35,19.15,1.82,41.79-14.94,54.15-8.79,6.48-19.83,9.08-30.63,7.86,0,.05,0,.09,0,.14,19.95,2.26,38.87-9.17,45.7-28.15,7.24-20.13.1-43.17-15.01-57.72-8.37-8.06-19.19-13.53-30.79-14.81h0Z"/><path class="cls-1" d="m19.29,24.15s0,.06,0,.09c20.89-1.03,41.05,10.94,48.46,30.84,7.5,20.14.22,42.94-15.83,56.7-9.08,7.78-20.58,12.41-32.52,13.09,0,.05,0,.09,0,.14,21.53-1.23,41.17-15.56,48.48-35.94,7.1-19.81,1.06-42.47-15.9-55.23-9.36-7.05-21.04-10.29-32.69-9.72v.05h0Z"/><path class="cls-1" d="m33.01,31.49v.14c17.38-4.47,31.2,8.05,35.86,24.05,5.75,19.73.36,42.65-11.7,58.98-6,8.12-14.18,15.1-24.08,17.79v.14c19.03-5.15,31.33-24.88,35.87-42.94,4.4-17.46,3.24-40.65-11.75-53.01-6.83-5.63-15.68-7.34-24.21-5.14h0Z"/><path class="cls-1" d="m59.19,35.68s0,.09,0,.14c8.12-10.43,11.93,21.43,12.13,24.49,1.25,18.6-.1,37.88-4.22,56.07-1.54,6.8-3.31,14.87-7.9,20.37,0,.05,0,.09,0,.14,9.23-11.05,10.34-30.9,11.58-44.49,1.48-16.26,2.69-35.02-2.4-50.82-1.17-3.65-4.86-11.47-9.21-5.89h0Z"/><path class="cls-1" d="m89.5,35.33s0,.07,0,.11c-11.95-9.98-16.1,19.24-16.63,25.41-1.56,18.06.29,37.05,5.5,54.42,2.19,7.3,5.08,16,11.08,21.09,0,.05,0,.09,0,.14-11.44-9.71-14.19-30.8-15.88-44.66-1.93-15.84-3.13-35.08,3.26-50.16,2.19-5.17,6.89-11.21,12.67-6.38v.02h0Z"/><path class="cls-1" d="m114.18,30.55s0,.05,0,.07c-23.36-5-39.35,15.3-41,36.76-1.25,16.21,3.96,32.86,13.9,45.69,6.77,8.74,16.05,15.88,26.99,18.35v.14c-18.18-4.11-31.42-20.47-37.36-37.4-5.85-16.66-5.86-37.63,5.49-52.06,7.71-9.81,19.77-14.22,31.98-11.61v.06h0Z"/><path class="cls-1" d="m125.39,22.79s0,.09,0,.14c-21.18-.5-41.56,11.9-49.1,32.04-7.52,20.12-.36,42.84,16.03,56.29,9.28,7.62,20.95,11.88,32.93,12.25v.14c-21.52-.66-41.63-14.3-49.1-34.7s-.76-42.67,16.12-55.63c9.45-7.25,21.25-10.81,33.12-10.53Z"/></svg>